<svg width="76" height="76" viewBox="0 0 76 76" fill="none" xmlns="http://www.w3.org/2000/svg">
<path d="M75.4932 17.7774C74.8759 17.1851 74.1282 16.7458 73.3102 16.495C72.4923 16.2442 71.6269 16.1889 70.7837 16.3334C69.6199 16.4076 69.215 16.3823 68.7242 15.8947C68.235 15.4038 68.2164 14.9889 68.2855 13.8351C68.4485 12.9921 68.4022 12.122 68.1507 11.3011C67.8992 10.4802 67.4501 9.7336 66.8428 9.12667C66.2356 8.51974 65.4888 8.07107 64.6678 7.81999C63.8468 7.56892 62.9767 7.52311 62.1339 7.68658C60.9919 7.75405 60.5719 7.74224 60.0845 7.25476C59.6004 6.77062 59.5836 6.35904 59.6561 5.21031C59.8021 4.36824 59.7483 3.50365 59.499 2.6862C59.2496 1.86874 58.8118 1.12128 58.2207 0.504042C58.0319 0.320166 57.8045 0.180584 57.5551 0.0954002C57.3056 0.0102168 57.0404 -0.0184362 56.7785 0.0115159C56.5164 0.0455138 56.2656 0.139236 56.0454 0.285461C55.8252 0.431686 55.6414 0.626511 55.5084 0.854928L47.0797 15.3035C42.894 15.1788 38.73 15.9517 34.8678 17.5701C31.0056 19.1886 27.5345 21.6152 24.688 24.6867C21.6165 27.5331 19.1899 31.0042 17.5716 34.8666C15.9533 38.7291 15.1806 42.8932 15.3057 47.0791L0.857572 55.5084C0.62913 55.6413 0.434279 55.825 0.28806 56.0451C0.141841 56.2653 0.0481625 56.5161 0.0142557 56.7782C-0.0196511 57.0404 0.00712011 57.3068 0.0925033 57.5569C0.177886 57.807 0.319598 58.0342 0.506701 58.2208C1.12412 58.813 1.87181 59.2522 2.68971 59.5029C3.50761 59.7537 4.37293 59.8092 5.21615 59.6649C6.37662 59.5907 6.78652 59.616 7.27568 60.1036C7.76483 60.5945 7.78349 61.0094 7.71422 62.1632C7.57023 63.0065 7.62584 63.8718 7.8766 64.6896C8.12736 65.5075 8.5663 66.2552 9.1582 66.8728C9.77661 67.4628 10.5243 67.9001 11.3416 68.1499C12.159 68.3997 13.0234 68.4551 13.8659 68.3117C15.0062 68.2341 15.4245 68.256 15.9153 68.7435C16.3994 69.2277 16.4162 69.6392 16.3437 70.788C16.1977 71.63 16.2515 72.4946 16.5008 73.3121C16.7502 74.1295 17.188 74.877 17.7791 75.4942C18.103 75.818 18.5423 75.9999 19.0003 76C19.0742 75.9998 19.148 75.9953 19.2214 75.9865C19.4835 75.9525 19.7344 75.8588 19.9546 75.7125C20.1748 75.5663 20.3585 75.3715 20.4915 75.1431L28.9432 60.6554C29.5286 60.7085 30.1008 60.8 30.7032 60.8C38.5424 60.4262 45.9307 57.0246 51.312 51.3116C54.3835 48.4652 56.8101 44.994 58.4284 41.1316C60.0467 37.2692 60.8194 33.1051 60.6943 28.9191L75.1424 20.4899C75.3709 20.357 75.5657 20.1733 75.7119 19.9532C75.8582 19.733 75.9518 19.4822 75.9857 19.2201C76.0197 18.9579 75.9929 18.6915 75.9075 18.4414C75.8221 18.1913 75.6803 17.9641 75.4932 17.7774ZM19.81 69.4569C19.7368 68.2605 19.2187 67.1347 18.3576 66.3009C17.7398 65.7106 16.9924 65.2732 16.1752 65.0237C15.358 64.7741 14.4938 64.7193 13.6516 64.8637C12.513 64.938 12.0897 64.9194 11.6005 64.4302C11.1114 63.9394 11.0927 63.5261 11.1618 62.3723C11.3057 61.5288 11.2501 60.6633 10.9993 59.8451C10.7486 59.027 10.3097 58.279 9.71782 57.661C8.87549 56.7912 7.73698 56.2697 6.52816 56.2002L16.0135 50.6672C16.6539 52.8807 17.8466 54.8949 19.4794 56.5206C21.1123 58.1463 23.1316 59.3302 25.3478 59.9608L19.81 69.4569ZM48.8694 48.8692C40.0021 57.7352 27.9131 60.0697 21.9218 54.0781C15.9287 48.0848 18.2649 35.9953 27.1305 27.1294C31.8516 22.0617 38.3425 19.0064 45.2564 18.5974C46.0557 18.5992 46.8536 18.6634 47.6429 18.7895C47.7301 18.8113 47.819 18.8261 47.9086 18.8338C50.2354 19.198 52.3914 20.2766 54.0781 21.9204C60.0711 27.9136 57.735 40.0032 48.8694 48.8692ZM59.9864 25.331C59.3412 23.1197 58.1492 21.1066 56.5204 19.4777C54.8917 17.8488 52.8787 16.6566 50.6675 16.0113L56.1899 6.54134C56.2631 7.73779 56.7811 8.86359 57.6422 9.69742C58.26 10.2877 59.0074 10.7252 59.8246 10.9748C60.6418 11.2243 61.5061 11.279 62.3483 11.1345C63.4969 11.0671 63.9135 11.0823 64.3994 11.5681C64.8885 12.0589 64.9072 12.4722 64.8381 13.626C64.6942 14.4695 64.7498 15.335 65.0005 16.1531C65.2513 16.9713 65.6902 17.7193 66.282 18.3373C67.1244 19.2071 68.2629 19.7285 69.4717 19.7981L59.9864 25.331Z" fill="#DF2E31"/>
</svg>
