<svg width="80" height="80" viewBox="0 0 80 80" fill="none" xmlns="http://www.w3.org/2000/svg">
<path d="M47.6 37.4667V23.8373C47.5991 22.8298 47.1982 21.864 46.4853 21.152L42.5333 17.2V12.1333" stroke="#DF2E31" stroke-width="3" stroke-linejoin="round"/>
<path d="M7.06667 12.1333V17.2L3.11467 21.152C2.40182 21.864 2.00089 22.8298 2 23.8373V74.2C2 75.2078 2.40036 76.1744 3.11299 76.887C3.82563 77.5996 4.79218 78 5.8 78H43.8C44.2303 78.0003 44.6579 77.9319 45.0667 77.7973" stroke="#DF2E31" stroke-width="3" stroke-linejoin="round"/>
<path d="M47.6 2H2V12.1333H47.6V2Z" stroke="#DF2E31" stroke-width="3" stroke-linejoin="round"/>
<path d="M34.9333 56.4667C34.9333 52.2078 36.1963 48.0445 38.5624 44.5034C40.9285 40.9622 44.2915 38.2023 48.2262 36.5725C52.1609 34.9426 56.4906 34.5162 60.6676 35.3471C64.8447 36.178 68.6816 38.2288 71.693 41.2403C74.7045 44.2518 76.7554 48.0887 77.5863 52.2657C78.4171 56.4428 77.9907 60.7724 76.3609 64.7071C74.7311 68.6418 71.9711 72.0049 68.43 74.371C64.8888 76.7371 60.7256 78 56.4667 78C54.9598 77.9992 53.4571 77.8421 51.9827 77.5313" stroke="#DF2E31" stroke-width="3" stroke-linejoin="round"/>
<path d="M69.1333 56.4667C69.1333 62.1777 66.8646 67.6548 62.8263 71.693C58.7881 75.7313 53.311 78 47.6 78C41.889 78 36.4119 75.7313 32.3736 71.693C28.3353 67.6548 26.0667 62.1777 26.0667 56.4667H69.1333Z" stroke="#DF2E31" stroke-width="3" stroke-linejoin="round"/>
<path d="M64.0666 56.4667C64.0666 60.8339 62.3317 65.0223 59.2436 68.1104C56.1555 71.1985 51.9672 72.9333 47.5999 72.9333C43.2327 72.9333 39.0443 71.1985 35.9562 68.1104C32.8681 65.0223 31.1333 60.8339 31.1333 56.4667" stroke="#DF2E31" stroke-width="3" stroke-linejoin="round"/>
<path d="M56.4667 34.9333V31.0067C56.467 28.686 55.5575 26.4576 53.9334 24.8L51.4 22.2667" stroke="#DF2E31" stroke-width="3" stroke-linejoin="round"/>
<path d="M47.6 72.9333V56.4667L59 67.8667" stroke="#DF2E31" stroke-width="3" stroke-linejoin="round"/>
<path d="M47.5999 56.4667L36.1999 67.8667" stroke="#DF2E31" stroke-width="3" stroke-linejoin="round"/>
<path d="M2 29.8667H47.6" stroke="#DF2E31" stroke-width="3" stroke-linejoin="round"/>
<path d="M28.6 65.3333H2" stroke="#DF2E31" stroke-width="3" stroke-linejoin="round"/>
<path d="M9.60001 2V7.06667H40V2" stroke="#DF2E31" stroke-width="3" stroke-linejoin="round"/>
<path d="M26.4086 60.2667H7.06665V34.9333H42.5333V40.0507" stroke="#DF2E31" stroke-width="3" stroke-linejoin="round"/>
<path d="M58.3667 24.1667C59.5827 22.9504 61.2321 22.2669 62.952 22.2667H64.0667V23.3813C64.0664 25.1012 63.383 26.7506 62.1667 27.9667C60.9506 29.183 59.3013 29.8664 57.5813 29.8667H56.4667V28.752C56.4669 27.0321 57.1504 25.3827 58.3667 24.1667Z" stroke="#DF2E31" stroke-width="3" stroke-linejoin="round"/>
<path d="M56.4667 40C59.7176 40 62.8958 40.9623 65.6007 42.7656C68.3057 44.5689 70.4163 47.1325 71.6667 50.1333" stroke="#DF2E31" stroke-width="3" stroke-linejoin="round"/>
</svg>
