<svg width="76" height="76" viewBox="0 0 76 76" fill="none" xmlns="http://www.w3.org/2000/svg">
<path d="M68.9093 34.629L41.3715 7.09063C36.8247 2.54875 30.6604 -0.00170089 24.2338 8.51044e-07C17.8071 0.00170259 11.6441 2.55541 7.09978 7.09971C2.55544 11.644 0.00170261 17.8069 8.51053e-07 24.2335C-0.00170091 30.6601 2.54877 36.8243 7.09071 41.371L26.3679 60.6472C26.6795 60.9482 27.0969 61.1147 27.5301 61.111C27.9634 61.1072 28.3778 60.9334 28.6841 60.6271C28.9905 60.3207 29.1642 59.9063 29.168 59.4731C29.1718 59.0399 29.0052 58.6225 28.7042 58.3109L24.365 53.9715L50.7355 27.6014C51.0365 27.2898 51.203 26.8724 51.1992 26.4392C51.1955 26.006 51.0217 25.5915 50.7154 25.2852C50.409 24.9789 49.9946 24.8051 49.5614 24.8013C49.1281 24.7976 48.7108 24.9641 48.3992 25.2651L22.0287 51.6353L9.42704 39.0347C5.50076 35.1084 3.29504 29.7832 3.29512 24.2305C3.2952 18.6779 5.50106 13.3528 9.42745 9.42652C13.3538 5.50029 18.6791 3.29459 24.2318 3.29467C29.7845 3.29475 35.1097 5.50059 39.036 9.42694L66.573 36.9644C70.4993 40.8907 72.7052 46.2158 72.7053 51.7685C72.7054 57.3211 70.4996 62.6463 66.5734 66.5726C62.6471 70.499 57.3219 72.7048 51.7692 72.7049C46.2165 72.705 40.8912 70.4993 36.9648 66.5731L35.3126 64.9208C35.0009 64.6198 34.5836 64.4533 34.1503 64.457C33.7171 64.4608 33.3027 64.6346 32.9964 64.9409C32.69 65.2473 32.5162 65.6617 32.5125 66.0949C32.5087 66.5281 32.6753 66.9455 32.9762 67.2571L34.6285 68.9094C39.1753 73.4513 45.3396 76.0017 51.7662 76C58.1929 75.9983 64.3559 73.4446 68.9002 68.9003C73.4446 64.356 75.9983 58.1931 76 51.7665C76.0017 45.3399 73.4512 39.1757 68.9093 34.629Z" fill="#DF2E31"/>
</svg>
