<svg width="76" height="76" viewBox="0 0 76 76" fill="none" xmlns="http://www.w3.org/2000/svg">
<path d="M8.55912 31.4185C8.68443 31.4185 8.81136 31.3992 8.9391 31.3584C9.80738 31.0818 10.3418 29.924 10.1332 28.7726C9.81627 27.0272 9.6562 25.2411 9.6562 23.4625C9.6562 12.8907 15.8328 4.28833 23.4243 4.28833C31.2809 4.28833 37.0379 11.5463 37.1147 21.5467C37.1244 22.7228 37.8447 23.6684 38.7316 23.6684C39.6185 23.6684 40.3388 22.7217 40.3485 21.5467C40.4262 11.5474 46.184 4.28833 54.0398 4.28833C61.632 4.28833 67.8087 12.8897 67.8087 23.4625C67.8087 25.2154 67.6542 26.9715 67.3478 28.6836C67.1417 29.835 67.6793 30.9907 68.5484 31.2641C69.4151 31.531 70.2882 30.8256 70.4944 29.6721C70.8574 27.6372 71.0425 25.5478 71.0425 23.4625C71.0425 10.5257 63.4147 0 54.0398 0C47.0329 0 41.3753 4.70966 38.7316 12.0127C36.0888 4.70966 30.432 0 23.4243 0C14.0494 0 6.42236 10.5246 6.42236 23.4625C6.42236 25.5788 6.61316 27.7026 6.98909 29.776C7.16695 30.7591 7.82908 31.4185 8.55912 31.4185Z" fill="#DF2E31"/>
<path d="M59.6739 43.191L38.7308 70.8304L17.9291 43.3744C17.2961 42.5414 16.2734 42.5424 15.642 43.3819C15.013 44.2213 15.0154 45.5796 15.6477 46.4148L37.5909 75.3761C37.907 75.792 38.3185 76 38.7316 76C39.1447 76 39.557 75.792 39.8723 75.3761L61.9554 46.2315C62.5876 45.3963 62.5908 44.038 61.961 43.1985C61.3288 42.3591 60.3069 42.3548 59.6739 43.191Z" fill="#DF2E31"/>
<path d="M75.1867 34.7913V34.7838H75.1851C74.8075 34.3775 74.333 34.1244 73.8083 34.1244C73.2852 34.1244 72.8114 34.3775 72.4347 34.7838H48.8762C48.4995 34.3775 48.0249 34.1244 47.5018 34.1244C46.2891 34.1244 45.3093 35.4249 45.3093 37.0319C45.3093 37.0909 45.3198 37.1445 45.3222 37.2024L39.0073 48.3242L29.1498 22.2683C29.1975 22.0292 29.2315 21.7837 29.2315 21.5253C29.2315 19.9215 28.25 18.6189 27.0397 18.6189C25.8286 18.6189 24.8472 19.9215 24.8472 21.5253C24.8472 21.5993 24.8601 21.669 24.8642 21.7419L17.4643 34.7838H3.56773C3.19018 34.3775 2.71642 34.1244 2.19335 34.1244C0.979852 34.1244 0 35.4249 0 37.0319C0 38.6379 0.979852 39.9394 2.19335 39.9394C2.80374 39.9394 3.35511 39.606 3.75287 39.0721H18.2712C18.7797 39.0721 19.2583 38.7558 19.5639 38.2166L26.764 25.5253L36.6507 51.6594C36.5844 51.9382 36.5383 52.2287 36.5383 52.5364C36.5383 54.1413 37.519 55.4428 38.7309 55.4428C39.9419 55.4428 40.925 54.1413 40.925 52.5364C40.925 52.397 40.908 52.2641 40.8943 52.1301L47.8422 39.8923C48.3151 39.7936 48.7396 39.5042 49.0613 39.071H72.2504C72.6473 39.6049 73.1987 39.9383 73.8091 39.9383C75.0226 39.9383 76 38.6368 76 37.0309C75.9992 36.1239 75.9951 35.3241 75.1867 34.7913Z" fill="#DF2E31"/>
</svg>
