<svg width="77" height="95" viewBox="0 0 77 95" fill="none" xmlns="http://www.w3.org/2000/svg">
<path fill-rule="evenodd" clip-rule="evenodd" d="M48.4277 90.5556C61.8642 90.5556 72.7567 78.2064 72.7567 64.7222C72.7567 64.7222 72.7567 72.6901 72.7567 64.7222V51.8027V44.0613C72.7567 41.2047 70.5973 38.8889 67.8917 38.8889C65.2048 38.8889 63.0267 41.2008 63.0267 44.0613V45.7778H59.7834V37.1888C59.7834 34.3231 57.624 32 54.9184 32C52.2315 32 50.0534 34.3131 50.0534 37.1888V42.3333H46.8101V33.7444C46.8101 30.8787 44.6507 28.5556 41.9451 28.5556C39.2582 28.5556 37.0801 30.8686 37.0801 33.7444V45.7778H33.8368V9.62916C33.8368 6.76572 31.6774 4.44444 28.9718 4.44444C26.2849 4.44444 24.1068 6.74234 24.1068 9.62916V48.5333C17.4307 40.9541 8.64144 32.617 5.03941 36.463C1.51336 40.2279 10.5995 50.6025 23.2875 73.2751C29.0042 83.4906 36.2378 90.554 48.4277 90.5556ZM76 64.7222C76 80.8919 63.6573 94 48.4317 94C38.3355 94 27.6803 88.9969 20.3472 74.8083C9.76266 54.3287 -3.77329 40.8977 2.67204 34.0527C7.28291 29.1559 14.5223 33.8537 20.8635 40.1523V9.64007C20.8635 4.84199 24.4937 1 28.9718 1C33.4811 1 37.0801 4.86829 37.0801 9.64007V26.8277C38.4353 25.7494 40.1197 25.1111 41.9451 25.1111C45.456 25.1111 48.4151 27.4446 49.5533 30.7191C50.9829 29.3753 52.8612 28.5556 54.9184 28.5556C59.4277 28.5556 63.0267 32.4072 63.0267 37.1585V37.2049C64.3819 36.1282 66.0663 35.4933 67.8917 35.4933C72.401 35.4933 76 39.3488 76 44.1049V64.7222Z" fill="#DF2E31" stroke="#DF2E31" stroke-width="2"/>
</svg>
