<svg width="75" height="93" viewBox="0 0 75 93" fill="none" xmlns="http://www.w3.org/2000/svg">
<path d="M71.2786 23.776C71.19 22.2434 70.0489 21.0514 68.6658 21.0514H54.8185V16.5066C54.8185 7.40564 47.0484 0 37.5 0C27.9517 0 20.1815 7.40564 20.1815 16.5066V21.0514H6.33416C4.95113 21.0514 3.80996 22.2434 3.7214 23.776L0.00493147 89.9121C-0.0393527 90.7144 0.216133 91.4977 0.710072 92.0842C1.20401 92.667 1.89553 93 2.6177 93H72.3823C73.1045 93 73.796 92.667 74.2899 92.0842C74.7839 91.4977 75.0394 90.7144 74.9951 89.9121L71.2786 23.776ZM25.4138 16.5066C25.4138 10.6108 30.8369 5.8125 37.5 5.8125C44.1631 5.8125 49.5862 10.6108 49.5862 16.5066V21.0514H25.4138V16.5066ZM20.1815 26.8639V33.1759C20.1815 34.7804 21.3533 36.0822 22.7977 36.0822C24.242 36.0822 25.4138 34.7804 25.4138 33.1759V26.8639H49.5862V33.1759C49.5862 34.7804 50.758 36.0822 52.2023 36.0822C53.6467 36.0822 54.8185 34.7804 54.8185 33.1759V26.8639H66.2064L68.4732 67.1654H6.52684L8.79364 26.8639H20.1815ZM5.40079 87.1875L6.30904 71.0404H68.691L69.5992 87.1875H5.40079Z" fill="#DF2E31"/>
</svg>
