<svg width="75" height="93" viewBox="0 0 75 93" fill="none" xmlns="http://www.w3.org/2000/svg">
<path d="M69.4672 15.4318H61.9022L61.087 7.64144C61.0804 7.57813 61.0523 7.53018 61.0418 7.46925C60.9058 6.66924 60.4837 6.06553 59.9302 5.86632C59.7507 5.7993 59.5608 5.78685 59.3697 5.81122C59.3515 5.81334 59.3353 5.80327 59.317 5.80619L59.3161 5.80645C59.3153 5.80645 59.3147 5.80619 59.314 5.80619C59.3132 5.80645 59.3126 5.80698 59.3119 5.80724L54.8548 6.69282L53.6438 1.49142C53.6015 1.31049 53.5217 1.16771 53.4515 1.01459C53.4136 0.932209 53.393 0.831544 53.348 0.757901C53.2532 0.602402 53.1321 0.492731 53.0117 0.381207C52.9655 0.338292 52.9306 0.27445 52.8814 0.238688C52.7956 0.1767 52.697 0.161072 52.6039 0.121866C52.5032 0.0789517 52.4082 0.0148447 52.3022 0.00106978C52.2446 -0.00608243 52.1845 0.0249112 52.1257 0.0265006C51.9829 0.0307392 51.8396 0.025706 51.6968 0.0884882L51.6779 0.0967003C51.6771 0.096965 51.6762 0.0967004 51.6754 0.0969652C51.6747 0.0972299 51.6743 0.0982888 51.6735 0.0985536L20.2429 13.5708L10.877 15.4318H5.53284C2.48108 15.4318 0 19.0768 0 23.5611V84.8748C0 89.3549 2.48108 93 5.53284 93H69.4672C72.5189 93 75 89.3549 75 84.8748V23.5611C75 19.0768 72.5189 15.4318 69.4672 15.4318ZM58.2167 10.4113L58.7421 15.4318H32.951L58.2167 10.4113ZM51.145 4.86524L51.7157 7.31667L39.9899 9.64677L51.145 4.86524ZM70.3125 84.8748C70.3125 85.7353 69.9188 86.4897 69.4672 86.4897H5.53284C5.08118 86.4897 4.6875 85.7353 4.6875 84.8748V23.5611C4.6875 22.6075 5.13306 21.942 5.53284 21.942H69.4672C69.8669 21.942 70.3125 22.6075 70.3125 23.5611V84.8748Z" fill="#DF2E31"/>
<path d="M59.0546 58.6387C60.7805 58.6387 62.1796 56.6595 62.1796 54.218C62.1796 51.7765 60.7805 49.7972 59.0546 49.7972C57.3287 49.7972 55.9296 51.7765 55.9296 54.218C55.9296 56.6595 57.3287 58.6387 59.0546 58.6387Z" fill="#DF2E31"/>
</svg>
